<svg width="49" height="49" viewBox="0 0 49 49" fill="none" xmlns="http://www.w3.org/2000/svg">
<path d="M24.5001 44.9166C26.7459 44.9166 28.5834 43.0791 28.5834 40.8333H20.4167C20.4167 43.0791 22.2338 44.9166 24.5001 44.9166ZM36.7501 32.6666V22.4583C36.7501 16.1904 33.4017 10.9433 27.5626 9.55496V8.16663C27.5626 6.47204 26.1947 5.10413 24.5001 5.10413C22.8055 5.10413 21.4376 6.47204 21.4376 8.16663V9.55496C15.578 10.9433 12.2501 16.17 12.2501 22.4583V32.6666L8.16675 36.75V38.7916H40.8334V36.75L36.7501 32.6666Z" fill="#434343"/>
<circle cx="6" cy="6" r="6" transform="matrix(-1 0 0 1 49 0)" fill="#FFA500"/>
</svg>
